<svg xmlns="http://www.w3.org/2000/svg" viewBox="419.715 982.0 119.464 44.2458" width="119.46" height="44.25" fill="none"><path d="M428.028 1003.77H424.919L424.709 1003.49L424.268 1004.08L424.52 1004.44H424.835V1007.34H427.797V1004.44L427.965 1004.38L428.028 1003.77ZM427.23 1006.71H425.402V1004.42H427.209V1006.71H427.23ZM428.953 1003.47L429.793 1003.89V1005.72H429.226V1004.31L428.575 1003.98L428.953 1003.47ZM430.634 1001.52L431.201 1001.29V1003.77H433.323L433.491 1004.23L432.084 1007.44L431.579 1007.21L432.819 1004.48H430.655V1001.56L430.634 1001.52ZM437.882 1003.47L436.916 1006.01L435.445 1006.56L435.34 1006.22L436.832 1003.89L436.454 1003.47L435.151 1005.53L434.584 1003.47L434.08 1003.87L435.046 1007.4L437.336 1006.56L438.303 1003.89L437.882 1003.47ZM439.185 1003.47L440.026 1003.89V1007.34H439.458V1004.33L438.807 1003.98L439.185 1003.47ZM440.971 1004.44L440.719 1004.08L441.16 1003.49L441.37 1003.77H443.387V1007.36H442.82V1004.46H440.971V1004.44ZM444.48 1003.47L445.32 1003.89V1005.72H444.753V1004.31L444.102 1003.98L444.48 1003.47ZM446.497 1003.47L446.707 1003.75H448.514V1006.6H448.997C448.997 1006.58 448.997 1007.23 448.997 1007.23L445.867 1007.36V1006.71L447.947 1006.62V1004.42H446.329L446.077 1004.06L446.518 1003.47H446.497ZM451.792 1004.44H452.107L452.191 1006.67L451.371 1006.77V1007.42L452.8 1007.25L452.674 1004.44H454.376V1007.34H454.943V1004.44L455.111 1004.38L455.174 1003.77H452.17L451.96 1003.49L451.518 1004.08L451.771 1004.44H451.792ZM456.12 1003.47L456.96 1003.89V1005.72H456.393V1004.31L455.742 1003.98L456.12 1003.47ZM457.864 1004.44L457.611 1004.08L458.053 1003.49L458.263 1003.77H460.301V1007.36H459.734V1004.46H457.885L457.864 1004.44ZM461.582 1003.47L461.793 1003.75H463.6V1006.6H464.083C464.083 1006.58 464.083 1007.23 464.083 1007.23L460.952 1007.36V1006.71L463.032 1006.62V1004.42H461.414L461.162 1004.06L461.603 1003.47H461.582ZM467.949 1003.58L467.318 1003.77L466.898 1006.48L466.121 1006.58L465.596 1003.54L465.028 1003.87L465.532 1006.69L464.482 1006.83V1007.49L467.36 1007.09L467.928 1003.6L467.949 1003.58ZM468.768 1004.44H471.1V1007.34H471.668V1004.44L471.836 1004.38L471.899 1003.77H469.146L468.936 1003.49L468.495 1004.08L468.747 1004.44H468.768ZM469.314 1005.13V1007.34H468.747V1005.36L469.314 1005.15V1005.13ZM474.777 1004.44H477.109V1007.34H477.677V1004.44L477.845 1004.38L477.908 1003.77H475.155L474.945 1003.49L474.504 1004.08L474.756 1004.44H474.777ZM475.323 1005.13V1007.34H474.756V1005.36L475.323 1005.15V1005.13ZM478.601 1003.87L478.895 1007.4L481.543 1007.02L481.942 1003.77H480.324L480.009 1004.44H481.29L481.038 1006.46L479.442 1006.67L479.189 1003.47L478.622 1003.89L478.601 1003.87ZM482.824 1003.47L483.665 1003.89V1005.72H483.097V1004.31L482.446 1003.98L482.824 1003.47ZM484.925 1003.77H487.972L487.426 1007.09L485.03 1007.42L484.673 1004.44H484.526L484.316 1004.08L484.757 1003.49L484.946 1003.77H484.925ZM486.942 1006.5L487.279 1004.44H485.261L485.493 1006.67L486.942 1006.5ZM488.77 1004.44L488.518 1004.08L488.959 1003.49L489.169 1003.77H491.186V1007.36H490.619V1004.46H488.77V1004.44ZM492.51 1003.47L492.72 1003.75H494.527V1006.6H495.01C495.01 1006.58 495.01 1007.23 495.01 1007.23L491.88 1007.36V1006.71L493.96 1006.62V1004.42H492.342L492.09 1004.06L492.531 1003.47H492.51ZM495.515 1003.47L496.355 1003.89V1005.72H495.788V1004.31L495.136 1003.98L495.515 1003.47ZM498.456 1003.89V1007.15L496.775 1007.49V1006.83L497.889 1006.58V1004.31L497.238 1003.96L497.616 1003.45L498.456 1003.87V1003.89ZM499.423 1003.47L500.263 1003.89V1007.34H499.696V1004.33L499.044 1003.98L499.423 1003.47ZM503.877 1005.91L504.234 1003.77H503.625L503.331 1005.3L501.902 1003.58L501.503 1003.81L500.977 1007.36H501.545L501.944 1004.65L504.339 1007.44L504.612 1006.85L503.856 1005.95L503.877 1005.91ZM505.222 1004.44H507.554V1007.34H508.121V1004.44L508.289 1004.38L508.352 1003.77H505.6L505.39 1003.49L504.948 1004.08L505.201 1004.44H505.222ZM505.789 1005.13V1007.34H505.222V1005.36L505.789 1005.15V1005.13Z" fill="black" />
<path d="M426.41 1010.95V1010.51H424.141V1010.95H425.023V1013.73H425.548V1010.95H426.431H426.41ZM429.372 1013.73V1010.51H428.868V1011.84H427.355V1010.51H426.83V1013.73H427.355V1012.3H428.868V1013.73H429.372ZM431.894 1013.73V1013.29H430.717V1012.3H431.831V1011.88H430.717V1010.97H431.894V1010.53H430.213V1013.75H431.894V1013.73ZM436.159 1013.73V1010.51H435.654V1011.84H434.142V1010.51H433.616V1013.73H434.142V1012.3H435.654V1013.73H436.159ZM438.68 1013.73V1013.29H437.503V1012.3H438.617V1011.88H437.503V1010.97H438.68V1010.53H436.999V1013.75H438.68V1013.73ZM441.474 1012.74C441.474 1012.4 441.285 1012.09 440.865 1012C441.201 1011.88 441.411 1011.58 441.411 1011.27C441.411 1010.79 441.054 1010.49 440.361 1010.49C439.667 1010.49 439.604 1010.49 439.352 1010.49V1013.71C439.71 1013.71 440.025 1013.71 440.235 1013.71C441.222 1013.71 441.495 1013.14 441.495 1012.72M440.865 1011.35C440.865 1011.67 440.613 1011.88 440.13 1011.88C439.646 1011.88 439.941 1011.88 439.857 1011.88V1010.93C439.983 1010.93 440.109 1010.93 440.256 1010.93C440.718 1010.93 440.865 1011.12 440.865 1011.37M440.928 1012.76C440.928 1013.08 440.697 1013.31 440.235 1013.31C439.773 1013.31 439.941 1013.31 439.857 1013.29V1012.26C439.92 1012.26 440.088 1012.26 440.151 1012.26C440.592 1012.26 440.928 1012.38 440.928 1012.76ZM444.311 1013.73L443.47 1012.61C443.386 1012.51 443.281 1012.38 443.197 1012.28C443.723 1012.21 444.101 1011.9 444.101 1011.37C444.101 1010.85 443.639 1010.51 442.987 1010.51C442.336 1010.51 442.357 1010.51 442.126 1010.51V1013.73H442.651V1012.34H442.672L443.66 1013.73H444.311ZM443.554 1011.42C443.554 1011.73 443.302 1011.94 442.882 1011.94C442.462 1011.94 442.672 1011.94 442.63 1011.94V1010.93C442.714 1010.93 442.798 1010.93 442.903 1010.93C443.344 1010.93 443.554 1011.08 443.554 1011.44M446.496 1013.73V1013.29H445.319V1012.3H446.433V1011.88H445.319V1010.97H446.496V1010.53H444.815V1013.75H446.496V1013.73ZM451.139 1010.51H450.614L450.11 1012.51C450.068 1012.68 450.026 1012.87 450.005 1013.08C449.963 1012.87 449.921 1012.66 449.879 1012.49L449.311 1010.51H448.744L448.198 1012.49C448.135 1012.68 448.093 1012.89 448.072 1013.1C448.051 1012.89 448.009 1012.68 447.946 1012.47L447.462 1010.51H446.916L447.757 1013.73H448.366L448.912 1011.73C448.954 1011.54 448.996 1011.33 449.017 1011.14C449.059 1011.35 449.08 1011.54 449.143 1011.75L449.69 1013.73H450.32L451.16 1010.51H451.139ZM455.215 1012.49V1010.51H454.711V1012.53C454.711 1013.12 454.48 1013.35 453.955 1013.35C453.429 1013.35 453.219 1013.03 453.219 1012.59V1010.51H452.694V1012.63C452.694 1013.22 452.904 1013.77 453.913 1013.77C454.921 1013.77 455.215 1013.35 455.215 1012.49ZM458.619 1013.73V1010.51H458.115V1011.46C458.115 1011.92 458.115 1012.61 458.157 1012.99C458.031 1012.76 457.905 1012.51 457.758 1012.26L456.707 1010.51H456.035V1013.73H456.539V1012.66C456.539 1012.19 456.539 1011.54 456.518 1011.23C456.623 1011.44 456.728 1011.67 456.875 1011.9L457.968 1013.73H458.64H458.619ZM459.985 1010.51H459.46V1013.73H459.985V1010.51ZM463.241 1010.51H462.716L462.023 1012.45C461.918 1012.7 461.876 1012.91 461.813 1013.14C461.75 1012.91 461.666 1012.68 461.603 1012.49L460.93 1010.51H460.363L461.498 1013.73H462.086L463.241 1010.51ZM465.3 1013.73V1013.29H464.124V1012.3H465.237V1011.88H464.124V1010.97H465.3V1010.53H463.62V1013.75H465.3V1013.73ZM468.179 1013.73L467.339 1012.61C467.254 1012.51 467.149 1012.38 467.065 1012.28C467.591 1012.21 467.969 1011.9 467.969 1011.37C467.969 1010.85 467.507 1010.51 466.855 1010.51C466.204 1010.51 466.225 1010.51 465.994 1010.51V1013.73H466.519V1012.34H466.54L467.528 1013.73H468.179ZM467.423 1011.42C467.423 1011.73 467.17 1011.94 466.75 1011.94C466.33 1011.94 466.54 1011.94 466.498 1011.94V1010.93C466.582 1010.93 466.666 1010.93 466.771 1010.93C467.212 1010.93 467.423 1011.08 467.423 1011.44M470.427 1012.74C470.427 1011.73 469.019 1011.98 469.019 1011.33C469.019 1010.68 469.229 1010.89 469.629 1010.89C470.028 1010.89 470.028 1010.93 470.217 1010.97V1010.51C470.049 1010.47 469.86 1010.45 469.671 1010.45C468.935 1010.45 468.494 1010.83 468.494 1011.39C468.494 1012.42 469.902 1012.15 469.902 1012.82C469.902 1013.5 469.608 1013.33 469.272 1013.33C468.935 1013.33 468.788 1013.29 468.599 1013.2V1013.68C468.746 1013.73 468.977 1013.77 469.208 1013.77C469.965 1013.77 470.448 1013.35 470.448 1012.76M471.52 1010.51H470.994V1013.73H471.52V1010.51ZM474.209 1010.95V1010.51H471.94V1010.95H472.822V1013.73H473.348V1010.95H474.23H474.209ZM476.856 1010.51H476.31L475.869 1011.46C475.764 1011.67 475.68 1011.86 475.596 1012.05C475.533 1011.88 475.449 1011.69 475.365 1011.5L474.881 1010.49H474.314L475.323 1012.55V1013.68H475.848V1012.55L476.877 1010.49L476.856 1010.51ZM481.1 1012.07C481.1 1011 480.512 1010.45 479.651 1010.45C478.789 1010.45 478.117 1011.08 478.117 1012.13C478.117 1013.18 478.579 1013.75 479.567 1013.75C480.554 1013.75 481.1 1013.12 481.1 1012.07ZM480.554 1012.13C480.554 1012.93 480.071 1013.31 479.609 1013.31C479.147 1013.31 478.684 1012.82 478.684 1012.09C478.684 1011.35 479.125 1010.91 479.63 1010.91C480.134 1010.91 480.575 1011.35 480.575 1012.11M483.328 1010.95V1010.51H481.647V1013.73H482.172V1012.32H483.265V1011.9H482.172V1010.95H483.328ZM485.744 1012.84V1010.51H485.219V1012.82C485.219 1013.22 485.093 1013.31 484.84 1013.31C484.588 1013.31 484.609 1013.29 484.525 1013.26V1013.71C484.63 1013.71 484.735 1013.75 484.903 1013.75C485.513 1013.75 485.744 1013.37 485.744 1012.84ZM488.244 1013.73V1013.29H487.068V1012.3H488.181V1011.88H487.068V1010.97H488.244V1010.53H486.563V1013.75H488.244V1013.73ZM491.102 1013.73L490.261 1012.61C490.177 1012.51 490.072 1012.38 489.988 1012.28C490.513 1012.21 490.891 1011.9 490.891 1011.37C490.891 1010.85 490.429 1010.51 489.778 1010.51C489.127 1010.51 489.148 1010.51 488.916 1010.51V1013.73H489.442V1012.34H489.463L490.45 1013.73H491.102ZM490.345 1011.42C490.345 1011.73 490.093 1011.94 489.673 1011.94C489.253 1011.94 489.463 1011.94 489.421 1011.94V1010.93C489.505 1010.93 489.589 1010.93 489.694 1010.93C490.135 1010.93 490.345 1011.08 490.345 1011.44M494.085 1012.49V1010.51H493.581V1012.53C493.581 1013.14 493.35 1013.35 492.824 1013.35C492.299 1013.35 492.089 1013.03 492.089 1012.59V1010.51H491.564V1012.63C491.564 1013.22 491.774 1013.77 492.782 1013.77C493.791 1013.77 494.085 1013.35 494.085 1012.49ZM496.627 1012.74C496.627 1011.73 495.22 1011.98 495.22 1011.33C495.22 1010.68 495.43 1010.89 495.829 1010.89C496.228 1010.89 496.228 1010.93 496.417 1010.97V1010.51C496.249 1010.47 496.06 1010.45 495.871 1010.45C495.136 1010.45 494.694 1010.83 494.694 1011.39C494.694 1012.42 496.102 1012.15 496.102 1012.82C496.102 1013.5 495.808 1013.33 495.472 1013.33C495.136 1013.33 494.989 1013.29 494.799 1013.2V1013.68C494.947 1013.73 495.178 1013.77 495.409 1013.77C496.165 1013.77 496.648 1013.35 496.648 1012.76M499.716 1013.73L498.56 1010.51H497.993L496.837 1013.73H497.363L497.615 1013.01H498.918L499.17 1013.73H499.737H499.716ZM498.749 1012.59H497.72L498.077 1011.6C498.14 1011.44 498.182 1011.25 498.224 1011.1C498.266 1011.27 498.308 1011.44 498.371 1011.58L498.728 1012.59H498.749ZM501.733 1013.73V1013.29H500.64V1010.53H500.115V1013.75H501.733V1013.73ZM503.834 1013.73V1013.29H502.657V1012.3H503.771V1011.88H502.657V1010.97H503.834V1010.53H502.153V1013.75H503.834V1013.73ZM508.162 1013.73L507.679 1010.51H507.049L506.418 1012.38C506.334 1012.61 506.292 1012.78 506.25 1013.01C506.208 1012.8 506.145 1012.59 506.082 1012.36L505.473 1010.51H504.864L504.38 1013.73H504.906L505.116 1012.07C505.158 1011.77 505.179 1011.52 505.2 1011.23C505.242 1011.46 505.326 1011.73 505.41 1011.98L505.977 1013.71H506.523L507.133 1011.84C507.217 1011.6 507.259 1011.39 507.301 1011.21C507.322 1011.42 507.343 1011.65 507.406 1011.98L507.658 1013.68H508.204L508.162 1013.73Z" fill="black" />
<path d="M528.898 1012.23L531.21 1015.7L532.764 1013.7L530.81 1009.75L528.898 1012.23Z" fill="black" />
<path d="M517.869 1012.97L513.373 1018.5V1022.55L517.512 1018.48L517.848 1012.97H517.869Z" fill="black" />
<path d="M521.777 1008.14L522.029 1014.1L526.946 1009.31L524.173 1005.17L521.777 1008.16V1008.14Z" fill="black" />
<path d="M526.882 1001.79L524.172 1005.15L526.945 1009.29L529.404 1006.9L526.882 1001.79Z" fill="black" />
<path d="M533.648 1006.12L532.535 1003.85L529.404 1006.92L530.812 1009.8L533.648 1006.14V1006.12Z" fill="black" />
<path d="M528.901 1012.23L530.813 1009.75L529.406 1006.88L526.947 1009.27L528.901 1012.21V1012.23Z" fill="black" />
<path d="M521.063 993.24H519.088L517.869 1012.97L521.777 1008.14L521.063 993.24Z" fill="black" />
<path d="M517.869 1012.97L517.533 1018.47L522.029 1014.1L521.777 1008.13L517.869 1012.97Z" fill="black" />
<path d="M520.684 986.999L519.865 985.318C519.865 985.318 518.121 987.987 518.121 989.037C518.121 990.676 518.898 991.769 518.898 991.769H521.294L521.714 989.184H520.18L520.684 986.999Z" fill="black" />
</svg>